<svg id="Camada_1" data-name="Camada 1" xmlns="http://www.w3.org/2000/svg" viewBox="0 0 327.79 447.49"><defs><style>.cls-1{fill:#242956;}.cls-2{fill:#642682;}</style></defs><path class="cls-1" d="M313.11,386.66l-44.9-90.2a5.26,5.26,0,0,0-7-2.59l-.12.06-21.26,10.58L236.62,298l14.29-7.11A5.57,5.57,0,0,0,253.5,284l-9.91-25.9a118.11,118.11,0,0,0,23.5-27.32L293.87,237a5.43,5.43,0,0,0,6.39-3.56l13.49-40.11a5.43,5.43,0,0,0-2.95-6.71l-25.19-11.15a122.52,122.52,0,0,0-2.22-35.89L306.74,125a5.57,5.57,0,0,0,2.11-7.1L290,80A5.57,5.57,0,0,0,283,77.37l-26,9.94a117.83,117.83,0,0,0-27.34-23.42L236,37.12a5.43,5.43,0,0,0-3.54-6.38L192.63,17.16a5.44,5.44,0,0,0-6.73,2.95l-11.14,25.2a122.11,122.11,0,0,0-35.93,2.26L124.26,24.3a5.26,5.26,0,0,0-6.94-1.8l-38,18.91A5.25,5.25,0,0,0,76.59,48l9.83,25.74A117.84,117.84,0,0,0,62.89,101L36.08,94.7a5.44,5.44,0,0,0-6.4,3.55l-13.49,40.1a5.42,5.42,0,0,0,2.95,6.7L44.32,156.2a122.52,122.52,0,0,0,2.22,35.89L22.87,206.85a5.58,5.58,0,0,0-2.12,7.1l18.88,37.94a5.57,5.57,0,0,0,6.94,2.59l26-9.95A118.27,118.27,0,0,0,99.87,268l-6.26,26.77a5.44,5.44,0,0,0,3.57,6.39l40.14,13.41a5.45,5.45,0,0,0,6.7-2.95l11.15-25.21a121.75,121.75,0,0,0,35.93-2.26l14.72,23.59a5.56,5.56,0,0,0,7.1,2.11l14-6.95,3.23,6.49-21.26,10.58a5.26,5.26,0,0,0-2.32,7.08l.06.12,44.89,90.2a34.42,34.42,0,0,0,61.63-30.67ZM133.47,262.09l-.39-.15-.38-.1a101.78,101.78,0,1,1,.77.25Z"/><path class="cls-2" d="M242.1,232.68l-29.85.08-13.72-27.41-32.81-65.79-32.43,66L119.71,233l-29.85.08,13.57-27.49L165.56,79.18l62.82,126.09Z"/></svg>