<svg id="Camada_1" data-name="Camada 1" xmlns="http://www.w3.org/2000/svg" viewBox="0 0 682.73 193.59"><defs><style>.cls-1{fill:#242956;}.cls-2{fill:#642682;}</style></defs><path class="cls-1" d="M127.82,163.89l-17.95-36.07a2.11,2.11,0,0,0-2.8-1l0,0L98.52,131l-1.29-2.6L103,125.6a2.23,2.23,0,0,0,1-2.78l-4-10.36a47.43,47.43,0,0,0,9.4-10.92l10.71,2.5a2.16,2.16,0,0,0,2.55-1.42l5.4-16a2.18,2.18,0,0,0-1.18-2.69l-10.07-4.45a49.08,49.08,0,0,0-.89-14.36l9.33-5.84a2.23,2.23,0,0,0,.85-2.84l-7.55-15.17a2.23,2.23,0,0,0-2.78-1l-10.38,4A47.16,47.16,0,0,0,94.47,34.8L97,24.09a2.17,2.17,0,0,0-1.42-2.55L79.64,16.11A2.18,2.18,0,0,0,77,17.29L72.49,27.37a48.83,48.83,0,0,0-14.37.9L52.29,19a2.08,2.08,0,0,0-2.77-.72l-15.2,7.56a2.1,2.1,0,0,0-1.09,2.65l3.93,10.29a46.93,46.93,0,0,0-9.41,10.9L17,47.12a2.17,2.17,0,0,0-2.56,1.42l-5.4,16a2.16,2.16,0,0,0,1.18,2.68l10.07,4.46a49,49,0,0,0,.89,14.35L11.74,92a2.24,2.24,0,0,0-.85,2.84L18.45,110a2.22,2.22,0,0,0,2.77,1l10.39-4a47.35,47.35,0,0,0,10.93,9.37L40,127.12a2.18,2.18,0,0,0,1.43,2.56L57.52,135a2.16,2.16,0,0,0,2.67-1.18l4.47-10.08a48.85,48.85,0,0,0,14.37-.9l5.88,9.43a2.23,2.23,0,0,0,2.84.85l5.59-2.78L94.63,133l-8.5,4.23a2.13,2.13,0,0,0-.94,2.84l0,0,18,36.08a13.77,13.77,0,0,0,24.65-12.27ZM56,114.07l-.15-.06-.15,0a40.38,40.38,0,1,1,.3.1Z"/><path class="cls-2" d="M99.42,102.31l-11.94,0L82,91.38,68.88,65.07l-13,26.38-5.43,11-11.94,0,5.43-11L68.81,40.91,93.94,91.34Z"/><path class="cls-2" d="M186.29,91.19l5.49,11-11.94,0-5.48-11-5.75-11.49-.26-.53a10.5,10.5,0,0,0-9-5.24l-10.66,0,.08,28.28-10.66,0-.17-61.48,37.69-.1a15.77,15.77,0,0,1,11.36,4.79,17.12,17.12,0,0,1,4.72,11.76,16.68,16.68,0,0,1-9.34,15.13,13.84,13.84,0,0,1-4.6,1.33ZM175.64,62.94a4.88,4.88,0,0,0,2.22-.54,5.56,5.56,0,0,0,3.22-5.1,5.87,5.87,0,0,0-1.63-4,5.3,5.3,0,0,0-3.84-1.57l-27,.08,0,11.33Z"/><path class="cls-2" d="M224,102l-.17-61.47,10.66,0,.17,61.48Z"/><path class="cls-2" d="M276.75,56.92l0,5.71,38.37-.11,0,11-38.38.11,0,11.59a5.58,5.58,0,0,0,5.48,5.61l43.57-.12,0,11-43.57.13c-8.87,0-16.06-7.42-16.08-16.56L266.18,57c0-9.13,7.12-16.62,16-16.64l43.58-.12,0,11-43.57.12A5.58,5.58,0,0,0,276.75,56.92Z"/><path class="cls-2" d="M405.68,57v-.35a5.56,5.56,0,0,0-5.47-5.6L376,51.11a5.59,5.59,0,0,0-5.44,5.64v.35A5.58,5.58,0,0,0,376,62.71l21.49-.06a18.47,18.47,0,0,1,13.92,6.28c.26.27.43.53.69.79A19.87,19.87,0,0,1,416.42,82c0,10.72-8.39,19.44-18.8,19.47l-18.67,0c-10.41,0-18.87-8.64-18.9-19.36l10.66,0a8.31,8.31,0,0,0,8.21,8.41l18.67-.05a8.43,8.43,0,0,0,0-16.86l-21.5.06a15.73,15.73,0,0,1-11.18-4.63,15.19,15.19,0,0,1-2.05-2.63A16.64,16.64,0,0,1,360,57v-.35c0-9.13,7.11-16.62,16-16.64L400.18,40a16.4,16.4,0,0,1,16.16,16.56v.35Z"/><path class="cls-1" d="M491.36,91.57l0,11-30.28.08a18.08,18.08,0,0,1-8.36-2,19.25,19.25,0,0,1-8.64-8.94,19.64,19.64,0,0,1-2-8.6L442,41.21l10.66,0,.12,42.95a8.64,8.64,0,0,0,7.27,7.44Z"/><path class="cls-1" d="M574.53,102.23l-11.94,0-5.49-11L544,65,531,91.37l-5.42,11-11.94,0,5.42-11,24.85-50.57L569,91.27Z"/><path class="cls-1" d="M656.33,82.42c0,10.8-8.47,19.61-19,19.64l-40.68.11-.17-61.48,37.61-.1a16.39,16.39,0,0,1,16.16,16.55,16.65,16.65,0,0,1-2.53,9A19.76,19.76,0,0,1,656.33,82.42ZM607.24,62.88l27-.07a5.62,5.62,0,0,0,0-11.24l-27,.07ZM637.34,91a8.61,8.61,0,0,0-.05-17.21l-30,.08.05,17.3,30-.08Z"/><path class="cls-1" d="M144.06,123.82a1,1,0,0,1,1-.75h1.33a1,1,0,0,1,1,.74l6.48,17.77c.23.63-.08,1-.74,1h-.94a1,1,0,0,1-1-.75L149.46,137l-7.38,0-1.71,4.89a1,1,0,0,1-1,.75h-.94c-.69,0-1-.41-.75-1Zm4.67,10.92-2.18-6.21c-.34-1-.76-2.77-.76-2.77h0s-.44,1.78-.77,2.78l-2.18,6.22Z"/><path class="cls-1" d="M156.35,129.5a.81.81,0,0,1,.91-.92h.64c.61,0,.92.31.92.78v.83a5.57,5.57,0,0,1,0,.75h0a5.09,5.09,0,0,1,4.71-2.71c3.77,0,6.17,3,6.18,7.34s-2.67,7.36-6.33,7.37a4.82,4.82,0,0,1-4.37-2.49h0a8.53,8.53,0,0,1,.08,1.22l0,5.58a.8.8,0,0,1-.89.92h-.86a.8.8,0,0,1-.91-.91Zm6.6,11.11c2.22,0,4.05-1.82,4-5s-1.65-5-4-5c-2.11,0-4,1.48-4,5.06C159,138.15,160.37,140.62,163,140.61Z"/><path class="cls-1" d="M172.78,129.46a.8.8,0,0,1,.91-.92h.64c.61,0,.91.3.91.77v.83a4.66,4.66,0,0,1-.06.75h.06a5.07,5.07,0,0,1,4.71-2.7c3.77,0,6.16,3,6.18,7.33s-2.67,7.36-6.34,7.37a4.79,4.79,0,0,1-4.36-2.48h-.05a8.53,8.53,0,0,1,.08,1.22l0,5.58a.8.8,0,0,1-.89.91h-.86a.82.82,0,0,1-.92-.92Zm6.6,11.1c2.22,0,4.05-1.81,4-5s-1.65-5-4-5c-2.11,0-4.05,1.48-4,5.06C175.41,138.11,176.8,140.57,179.38,140.56Z"/><path class="cls-1" d="M189.16,123.86a.81.81,0,0,1,.91-.92h.86a.82.82,0,0,1,.92.92l0,14.51c0,1.58.7,1.8,1.28,1.85a.74.74,0,0,1,.73.8v.67a.82.82,0,0,1-.94.94c-1.5,0-3.75-.4-3.76-3.92Z"/><path class="cls-1" d="M196.4,124.76v-.92a.81.81,0,0,1,.92-.91h.94a.83.83,0,0,1,.92.91v.92a.83.83,0,0,1-.91.92h-1A.83.83,0,0,1,196.4,124.76Zm0,4.63a.82.82,0,0,1,.91-.92h.86a.81.81,0,0,1,.92.91l0,12.21a.81.81,0,0,1-.91.92h-.86a.82.82,0,0,1-.92-.91Z"/><path class="cls-1" d="M209.15,128.11c3.88,0,6.06,2.76,6.07,6.67a.93.93,0,0,1-.94.94l-9.38,0a4.73,4.73,0,0,0,4.87,4.73,5.76,5.76,0,0,0,3.35-1.12.82.82,0,0,1,1.25.3l.25.42a.82.82,0,0,1-.27,1.22,8.27,8.27,0,0,1-4.74,1.51,7.15,7.15,0,0,1-7.46-7.33C202.14,131,205.16,128.12,209.15,128.11Zm3.37,5.84c-.09-2.47-1.56-3.74-3.42-3.73A4.13,4.13,0,0,0,205,134Z"/><path class="cls-1" d="M223.64,128.07a4.76,4.76,0,0,1,4.36,2.4h.05a5.6,5.6,0,0,1-.08-.94l0-5.77a.82.82,0,0,1,.92-.92h.86a.8.8,0,0,1,.91.91l.05,17.75a.81.81,0,0,1-.91.92h-.72c-.61,0-.92-.3-.92-.85v-.81a4.66,4.66,0,0,1,.05-.69h-.05a5,5,0,0,1-4.63,2.7c-3.8,0-6.2-3-6.21-7.33S219.92,128.08,223.64,128.07Zm.39,12.37c2.08,0,4.05-1.48,4-5.06,0-2.5-1.32-5-4-4.95-2.19,0-4,1.81-4,5S221.7,140.45,224,140.44Z"/><path class="cls-1" d="M242.05,123.72a.81.81,0,0,1,.92-.92l5.27,0a8.62,8.62,0,0,1,3.66.52,5.32,5.32,0,0,1,3.09,5.13,5.46,5.46,0,0,1-3.48,5.39v.05a5.41,5.41,0,0,1,.59.89l3.54,6.51c.36.64.08,1.08-.61,1.08h-1.11a1.06,1.06,0,0,1-1.08-.63L249,134.57H244.8l0,6.88a.81.81,0,0,1-.91.92H243a.8.8,0,0,1-.92-.91Zm6.68,8.47a3.35,3.35,0,0,0,3.49-3.65,3.08,3.08,0,0,0-1.84-3,5.49,5.49,0,0,0-2.33-.33h-3.27v7Z"/><path class="cls-1" d="M264.51,128c3.89,0,6.06,2.76,6.07,6.67a.94.94,0,0,1-.94.95l-9.38,0a4.74,4.74,0,0,0,4.87,4.73,5.77,5.77,0,0,0,3.35-1.12c.53-.28.95-.23,1.25.3l.25.42a.82.82,0,0,1-.27,1.22,8.39,8.39,0,0,1-4.74,1.51,7.16,7.16,0,0,1-7.46-7.33C257.5,130.86,260.52,128,264.51,128Zm3.38,5.85c-.09-2.47-1.57-3.74-3.43-3.74a4.13,4.13,0,0,0-4.09,3.76Z"/><path class="cls-1" d="M272.79,139.86l.27-.39c.37-.47.73-.5,1.28-.19a6.15,6.15,0,0,0,3.44,1.12c1.39,0,2.39-.67,2.38-1.86,0-2.75-7.24-1.81-7.25-6.56,0-2.66,2.31-4,5.06-4.06a7.07,7.07,0,0,1,3.89,1.07.8.8,0,0,1,.31,1.22l-.25.42c-.28.5-.69.55-1.22.3a5.56,5.56,0,0,0-2.86-.79c-1.33,0-2.36.59-2.35,1.78,0,2.8,7.24,1.78,7.26,6.55,0,2.39-2,4.14-5,4.15a7.79,7.79,0,0,1-4.72-1.51A.82.82,0,0,1,272.79,139.86Z"/><path class="cls-1" d="M291.82,127.88c3.88,0,6.05,2.76,6.06,6.67a.92.92,0,0,1-.93.94l-9.38,0a4.73,4.73,0,0,0,4.87,4.73,5.76,5.76,0,0,0,3.35-1.12.82.82,0,0,1,1.25.3l.25.42a.82.82,0,0,1-.27,1.22,8.3,8.3,0,0,1-4.74,1.51,7.15,7.15,0,0,1-7.46-7.33C284.81,130.78,287.82,127.89,291.82,127.88Zm3.37,5.84c-.09-2.47-1.56-3.74-3.42-3.73a4.13,4.13,0,0,0-4.1,3.75Z"/><path class="cls-1" d="M308.07,133.55h.72v-.36c0-2.31-1.34-3.08-3.06-3.07a6.47,6.47,0,0,0-3.16.89.86.86,0,0,1-1.25-.33l-.22-.38a.83.83,0,0,1,.3-1.25,9.18,9.18,0,0,1,4.54-1.21c3.5,0,5.53,1.93,5.54,5.48l0,8a.82.82,0,0,1-.91.92h-.7a.81.81,0,0,1-.91-.91v-.83a3.74,3.74,0,0,1,.09-.87H309a5.22,5.22,0,0,1-4.57,3c-2.47,0-4.72-1.52-4.73-4.15C299.69,134,305.16,133.56,308.07,133.55Zm-3,6.86c2.36,0,3.8-2.4,3.79-4.48v-.61h-.72c-2,0-5.69.19-5.68,2.85A2.35,2.35,0,0,0,305,140.41Z"/><path class="cls-1" d="M315.16,129.06a.83.83,0,0,1,.91-.92h.78a.81.81,0,0,1,.92.91v1.61a7,7,0,0,1-.08,1.06h.06c.6-1.86,2.18-3.7,4.29-3.7.64,0,.89.3.89.91v.78c0,.61-.36.91-1,.92-2.74,0-4.07,3-4.06,5.75l0,4.88a.82.82,0,0,1-.92.92h-.86a.83.83,0,0,1-.92-.91Z"/><path class="cls-1" d="M331.09,127.77a7.46,7.46,0,0,1,4.63,1.48.8.8,0,0,1,.17,1.25l-.27.42a.81.81,0,0,1-1.25.23,5.39,5.39,0,0,0-3.14-1.05,4.78,4.78,0,0,0-4.87,5,4.85,4.85,0,0,0,4.95,5,5.91,5.91,0,0,0,3.58-1.28.78.78,0,0,1,1.25.24l.22.42a.83.83,0,0,1-.25,1.22,7.77,7.77,0,0,1-5,1.73,7.35,7.35,0,1,1,0-14.7Z"/><path class="cls-1" d="M339.26,123.45a.81.81,0,0,1,.91-.92H341a.8.8,0,0,1,.89.91l0,6.35a8.21,8.21,0,0,1-.08,1.17h.06a5.79,5.79,0,0,1,5.23-3.23c3.3,0,4.83,1.79,4.84,5.36l0,8.08a.83.83,0,0,1-.92.92h-.86a.82.82,0,0,1-.92-.92l0-7.46c0-2-.42-3.52-2.67-3.51-2.69,0-4.68,2.23-4.67,5.25v5.74a.8.8,0,0,1-.88.92h-.86a.82.82,0,0,1-.92-.92Z"/><path class="cls-1" d="M362.57,124.3v-.92a.81.81,0,0,1,.91-.92h.95a.82.82,0,0,1,.91.92v.91a.84.84,0,0,1-.92.92h-.94A.82.82,0,0,1,362.57,124.3Zm0,4.63a.82.82,0,0,1,.92-.92h.86a.8.8,0,0,1,.91.91l0,12.21a.81.81,0,0,1-.92.92h-.86a.81.81,0,0,1-.91-.91Z"/><path class="cls-1" d="M369.19,128.91a.83.83,0,0,1,.91-.92h.78a.82.82,0,0,1,.92.92v1.24a4.57,4.57,0,0,1-.08.81h.06a5.83,5.83,0,0,1,5.31-3.32c3.31,0,4.81,1.79,4.82,5.37l0,8.07a.81.81,0,0,1-.91.92h-.86a.82.82,0,0,1-.92-.92l0-7.46c0-2-.4-3.52-2.65-3.52-2.72,0-4.68,2.29-4.67,5.2v5.8a.8.8,0,0,1-.91.92h-.86a.83.83,0,0,1-.92-.91Z"/><path class="cls-1" d="M392.11,139l.47-.66c.33-.45.72-.5,1.25-.17a7.31,7.31,0,0,0,4.28,1.57c2.08,0,3.43-1.12,3.43-2.82,0-4.32-9.44-3.33-9.46-9.43,0-3.3,2.76-5.45,6.34-5.45a8.46,8.46,0,0,1,4.91,1.48.88.88,0,0,1,.28,1.25l-.38.69c-.33.59-.78.53-1.25.25a6.8,6.8,0,0,0-3.61-1.12c-2,0-3.52,1.06-3.52,2.75,0,4.22,9.44,3.06,9.46,9.36,0,3.07-2.28,5.58-6.2,5.59a9.67,9.67,0,0,1-5.88-2A.84.84,0,0,1,392.11,139Z"/><path class="cls-1" d="M414.06,127.54a7.35,7.35,0,1,1-7.53,7.35A7.32,7.32,0,0,1,414.06,127.54Zm0,12.37a5,5,0,1,0-4.84-5A4.84,4.84,0,0,0,414.09,139.91Z"/><path class="cls-1" d="M425.11,130.17h-.89a.85.85,0,0,1-.92-.92v-.36a.84.84,0,0,1,.92-.92h.88v-.66a4.86,4.86,0,0,1,5.06-5.18h.34a.83.83,0,0,1,.92.91v.53c0,.61-.33.86-1,.92-1,.06-2.66.31-2.66,2.92V128h2.42a.84.84,0,0,1,.92.91v.36a.84.84,0,0,1-.92.92H427.8l0,10.79a.81.81,0,0,1-.91.92h-.86a.82.82,0,0,1-.92-.92Z"/><path class="cls-1" d="M434.1,130.15h-1a.81.81,0,0,1-.89-.91v-.36a.82.82,0,0,1,.91-.92h1v-3.08a.82.82,0,0,1,.91-.92h.81a.81.81,0,0,1,.92.91V128h2.44a.83.83,0,0,1,.92.92v.36a.81.81,0,0,1-.89.91h-2.47l0,6.24c0,2.67,1.64,3.08,2.67,3.16.72.05,1,.27,1,.91V141c0,.64-.36.92-1.11.92-2.78,0-5.22-1.59-5.23-5.14Z"/><path class="cls-1" d="M441.62,128.82c-.2-.63.11-1,.77-1h.92a1,1,0,0,1,1,.78l2.77,9.06c.19.72.33,1.5.33,1.5h.06s.16-.78.38-1.5l2.81-9a.92.92,0,0,1,1-.78h.86a1,1,0,0,1,1,.78l2.86,9c.2.72.36,1.49.36,1.49h.06a15,15,0,0,1,.36-1.5l2.72-9.08a.9.9,0,0,1,1-.78h.92c.66,0,1,.39.78,1L458.69,141a1,1,0,0,1-1,.78H456.3a.94.94,0,0,1-1-.77l-2.71-8.23a11.24,11.24,0,0,1-.39-1.53h-.06a13.22,13.22,0,0,1-.41,1.53L449.06,141a1,1,0,0,1-1,.78h-1.38a1,1,0,0,1-1-.77Z"/><path class="cls-1" d="M472.46,133.09h.72v-.36c0-2.3-1.34-3.07-3.06-3.07a6.36,6.36,0,0,0-3.16.9.86.86,0,0,1-1.25-.33l-.23-.39a.84.84,0,0,1,.31-1.25,9.18,9.18,0,0,1,4.54-1.21c3.5,0,5.53,1.93,5.54,5.48l0,8a.82.82,0,0,1-.91.92h-.7a.81.81,0,0,1-.91-.91V140a3.59,3.59,0,0,1,.09-.86h-.06a5.22,5.22,0,0,1-4.57,3c-2.47,0-4.72-1.51-4.73-4.15C464.08,133.59,469.54,133.1,472.46,133.09Zm-3,6.86c2.36,0,3.8-2.39,3.79-4.47v-.61h-.72c-2,0-5.69.18-5.68,2.84A2.35,2.35,0,0,0,469.42,140Z"/><path class="cls-1" d="M479.55,128.61a.82.82,0,0,1,.91-.92h.78a.81.81,0,0,1,.92.91v1.61a5.7,5.7,0,0,1-.08,1h.06c.6-1.86,2.18-3.69,4.29-3.7.64,0,.89.3.89.92v.77c0,.61-.36.92-1,.92-2.75,0-4.08,3-4.07,5.75l0,4.89a.81.81,0,0,1-.92.91h-.86a.83.83,0,0,1-.92-.92Z"/><path class="cls-1" d="M495.11,127.32c3.89,0,6.06,2.75,6.07,6.66a.94.94,0,0,1-.94,1l-9.38,0a4.74,4.74,0,0,0,4.87,4.73,5.77,5.77,0,0,0,3.35-1.12c.53-.28.95-.23,1.25.3l.25.42a.82.82,0,0,1-.27,1.22,8.39,8.39,0,0,1-4.74,1.51,7.16,7.16,0,0,1-7.46-7.33C488.1,130.22,491.12,127.33,495.11,127.32Zm3.38,5.84c-.09-2.47-1.57-3.74-3.43-3.74a4.13,4.13,0,0,0-4.09,3.76Z"/><path class="cls-1" d="M511.59,123a.8.8,0,0,1,.91-.92l9.54,0a.8.8,0,0,1,.92.91v.55a.82.82,0,0,1-.91.92l-7.74,0,0,6.13h6.13a.83.83,0,0,1,.92.91V132a.82.82,0,0,1-.92.92l-6.13,0,0,6.3,8.21,0a.8.8,0,0,1,.92.91v.55a.81.81,0,0,1-.91.92l-10,0a.8.8,0,0,1-.91-.91Z"/><path class="cls-1" d="M526.28,128.48a.82.82,0,0,1,.91-.92H528a.81.81,0,0,1,.92.91v1.25a4.38,4.38,0,0,1-.08.8h.06a5.83,5.83,0,0,1,5.32-3.31c3.3,0,4.8,1.79,4.81,5.37l0,8.07a.81.81,0,0,1-.91.92h-.86a.82.82,0,0,1-.92-.91l0-7.47c0-2-.4-3.52-2.65-3.51-2.71,0-4.68,2.29-4.67,5.2l0,5.8a.82.82,0,0,1-.92.92h-.86a.83.83,0,0,1-.92-.92Z"/><path class="cls-1" d="M544.89,144.43a8.12,8.12,0,0,0,3.05.61c2.39,0,4.41-1.1,4.4-4v-1.22a5.85,5.85,0,0,1,.08-.89h0a4.41,4.41,0,0,1-4.16,2.39c-3.94,0-6.33-3.09-6.34-7.19s2.2-7,6.25-7c3.46,0,4.39,2.34,4.39,2.34h0a1.62,1.62,0,0,1,0-.44v-.8c0-.48.31-.78.92-.78h.66a.8.8,0,0,1,.92.91l0,12.54c0,4.63-3.54,6.42-6.95,6.43a10.6,10.6,0,0,1-4.08-.77.81.81,0,0,1-.48-1.22l.2-.47A.78.78,0,0,1,544.89,144.43Zm7.49-10.2c0-3.69-1.82-4.74-3.9-4.73-2.52,0-3.87,1.78-3.87,4.56,0,3,1.54,5,4.07,5C550.62,139,552.39,137.87,552.38,134.23Z"/><path class="cls-1" d="M558.88,123.75v-.91a.82.82,0,0,1,.92-.92h.94a.82.82,0,0,1,.92.91v.92a.83.83,0,0,1-.91.91h-1A.82.82,0,0,1,558.88,123.75Zm0,4.64a.82.82,0,0,1,.91-.92h.86a.8.8,0,0,1,.92.91l0,12.21a.8.8,0,0,1-.91.91h-.86a.82.82,0,0,1-.92-.92Z"/><path class="cls-1" d="M565.49,128.37a.82.82,0,0,1,.92-.92h.77a.81.81,0,0,1,.92.91v1.25a4.57,4.57,0,0,1-.08.81h.06a5.82,5.82,0,0,1,5.32-3.32c3.3,0,4.8,1.79,4.81,5.37l0,8.07a.8.8,0,0,1-.91.92h-.86a.82.82,0,0,1-.92-.91l0-7.46c0-2-.4-3.53-2.64-3.52-2.72,0-4.69,2.29-4.68,5.2l0,5.8a.82.82,0,0,1-.92.92h-.86a.81.81,0,0,1-.91-.91Z"/><path class="cls-1" d="M588,127.06c3.88,0,6.06,2.76,6.07,6.67a.93.93,0,0,1-.94.94l-9.38,0a4.73,4.73,0,0,0,4.87,4.73,5.76,5.76,0,0,0,3.35-1.12.82.82,0,0,1,1.25.3l.25.42a.82.82,0,0,1-.27,1.22,8.35,8.35,0,0,1-4.74,1.51,7.15,7.15,0,0,1-7.46-7.33C581,130,584,127.07,588,127.06Zm3.37,5.84c-.09-2.47-1.56-3.74-3.42-3.73a4.13,4.13,0,0,0-4.1,3.75Z"/><path class="cls-1" d="M603.14,127c3.89,0,6.06,2.75,6.07,6.67a.94.94,0,0,1-.94.94l-9.38,0a4.74,4.74,0,0,0,4.87,4.73,5.77,5.77,0,0,0,3.35-1.12c.53-.28.95-.23,1.25.3l.25.42a.82.82,0,0,1-.27,1.22,8.39,8.39,0,0,1-4.74,1.51,7.16,7.16,0,0,1-7.46-7.33C596.13,129.92,599.15,127,603.14,127Zm3.38,5.84c-.09-2.47-1.57-3.74-3.43-3.73a4.11,4.11,0,0,0-4.09,3.75Z"/><path class="cls-1" d="M612.14,128.24a.82.82,0,0,1,.91-.92h.78a.81.81,0,0,1,.92.91v1.61a7.2,7.2,0,0,1-.08,1.06h.06c.6-1.86,2.18-3.7,4.29-3.71.63,0,.89.31.89.92v.77c0,.61-.36.92-1,.92-2.74,0-4.07,3-4.06,5.76v4.88a.8.8,0,0,1-.91.92h-.86a.83.83,0,0,1-.92-.91Z"/><path class="cls-1" d="M622,123.58v-.92a.8.8,0,0,1,.91-.91h.94a.83.83,0,0,1,.92.92v.91a.83.83,0,0,1-.91.92h-.94A.82.82,0,0,1,622,123.58Zm0,4.63a.83.83,0,0,1,.91-.92h.86a.81.81,0,0,1,.92.91l0,12.21a.8.8,0,0,1-.91.92H623a.82.82,0,0,1-.92-.91Z"/><path class="cls-1" d="M628.6,128.19a.81.81,0,0,1,.91-.91h.77a.82.82,0,0,1,.92.92v1.24a4.57,4.57,0,0,1-.08.81h0a5.83,5.83,0,0,1,5.32-3.32c3.3,0,4.8,1.79,4.81,5.37l0,8.08a.8.8,0,0,1-.91.91h-.86a.83.83,0,0,1-.92-.92l0-7.46c0-2-.39-3.52-2.64-3.52-2.72,0-4.68,2.29-4.68,5.2l0,5.8a.81.81,0,0,1-.91.92h-.86a.81.81,0,0,1-.92-.91Z"/><path class="cls-1" d="M647.2,144.15a8,8,0,0,0,3.06.6c2.38,0,4.41-1.09,4.4-3.95v-1.22a4.68,4.68,0,0,1,.08-.89h-.06a4.42,4.42,0,0,1-4.16,2.4c-3.93,0-6.33-3.09-6.34-7.2s2.2-7,6.25-7c3.47,0,4.39,2.34,4.39,2.34h.06a1.44,1.44,0,0,1-.06-.44V128c0-.47.3-.77.91-.78h.67a.8.8,0,0,1,.91.91l0,12.55c0,4.63-3.53,6.41-7,6.42a10.68,10.68,0,0,1-4.08-.76.81.81,0,0,1-.47-1.22l.19-.47A.78.78,0,0,1,647.2,144.15Zm7.5-10.2c0-3.69-1.82-4.74-3.9-4.74-2.53,0-3.88,1.79-3.87,4.56,0,3,1.54,5,4.06,5C652.93,138.75,654.7,137.58,654.7,134Z"/></svg>